<svg width="189" height="52" viewBox="0 0 189 52" fill="none" xmlns="http://www.w3.org/2000/svg">
<g clip-path="url(#clip0_25_319)">
<path d="M0 15.4996H32.1429C34.2731 15.4996 36 17.2265 36 19.3568V51.4996H0V15.4996Z" fill="#506FBA"/>
<path d="M49 37.4996H16.8571C14.7269 37.4996 13 35.7727 13 33.6425V1.49963H49V37.4996Z" fill="#F34B58"/>
<path d="M36 37.4996H17.0588C14.8172 37.4996 13 35.7614 13 33.6173V15.4996H31.9412C34.1828 15.4996 36 17.2378 36 19.382V37.4996Z" fill="#340D23"/>
<path d="M78.6858 10.0325V1.2865H77.5168V10.0325H72.1649V1.2865H70.996V10.0325V11.1452H79.2069V13.2155H80.3758V10.0325H78.6858Z" fill="#340D23"/>
<path d="M85.3805 3.24451C83.0707 3.24451 81.423 4.94865 81.423 7.30064C81.423 9.66673 83.0989 11.3004 85.3946 11.3004C87.0142 11.3004 88.4226 10.4977 89.0704 8.84986H87.8592C87.3945 9.75123 86.5072 10.2019 85.4368 10.2019C83.8735 10.2019 82.7328 9.23013 82.62 7.62457H89.2535C89.3521 5.0754 87.7889 3.24451 85.3805 3.24451ZM85.3805 4.34304C86.7747 4.34304 87.7325 5.23033 87.9859 6.52604H82.6764C82.944 5.2585 83.958 4.34304 85.3805 4.34304Z" fill="#340D23"/>
<path d="M96.891 3.39905V6.62424H92.1307V3.39905H90.9618V11.1451H92.1307V7.73686H96.891V11.1451H98.06V3.39905H96.891Z" fill="#340D23"/>
<path d="M105.994 3.39905H103.318H99.4731V4.49758H102.149V11.1451H103.318V4.49758H105.994V3.39905Z" fill="#340D23"/>
<path d="M111.622 3.24451C110.285 3.24451 109.228 3.93462 108.637 4.9909V3.39943H107.468V14.6665H108.637V9.58222C109.228 10.6244 110.27 11.3004 111.608 11.3004C113.721 11.3004 115.242 9.61039 115.242 7.27247C115.242 4.92048 113.721 3.24451 111.622 3.24451ZM111.397 10.1878C109.82 10.1878 108.623 8.97661 108.623 7.27247C108.623 5.56834 109.82 4.35712 111.397 4.35712C112.96 4.35712 114.059 5.58243 114.059 7.27247C114.059 8.97661 112.96 10.1878 111.397 10.1878Z" fill="#340D23"/>
<path d="M78.6505 28.435V19.689H72.7634L71.6508 26.4634C71.4536 27.6041 71.2565 28.1816 70.9044 28.435H69.496V31.6179H70.6649V29.5477H78.8758V31.6179H80.0588V28.435H78.6505ZM72.8056 26.5337L73.7493 20.8017H77.4816V28.435H72.2283C72.4817 28.0548 72.6508 27.4491 72.8056 26.5337Z" fill="#340D23"/>
<path d="M87.1479 21.8015L82.6834 28.111L82.7538 25.5197V21.8015H81.5848V29.5477H83.0215L87.486 23.224L87.4156 25.8295V29.5477H88.5846V21.8015H87.1479Z" fill="#340D23"/>
<path d="M94.3387 29.7029C96.1133 29.7029 97.6765 28.6467 98.099 26.8439H96.8878C96.5217 27.9284 95.5358 28.6185 94.3387 28.6185C92.719 28.6185 91.5219 27.3933 91.5219 25.6749C91.5219 23.9709 92.7049 22.7314 94.3387 22.7314C95.5358 22.7314 96.5217 23.4075 96.8878 24.506H98.099C97.6906 22.7314 96.1414 21.647 94.3387 21.647C92.0712 21.647 90.3389 23.3653 90.3389 25.6749C90.3389 27.9847 92.0712 29.7029 94.3387 29.7029Z" fill="#340D23"/>
<path d="M105.323 21.8015H102.647H98.8024V22.9001H101.478V29.5477H102.647V22.9001H105.323V21.8015Z" fill="#340D23"/>
<path d="M112.775 21.8019V23.3934C112.183 22.3372 111.127 21.647 109.789 21.647C107.69 21.647 106.169 23.323 106.169 25.6749C106.169 28.0129 107.676 29.7029 109.789 29.7029C111.127 29.7029 112.169 29.027 112.775 27.9847V29.5481H113.943V21.8019H112.775ZM110.014 28.5903C108.451 28.5903 107.352 27.3791 107.352 25.6749C107.352 23.985 108.437 22.7597 110.014 22.7597C111.592 22.7597 112.789 23.9709 112.789 25.6749C112.789 27.3791 111.592 28.5903 110.014 28.5903Z" fill="#340D23"/>
<path d="M121.954 21.8015V25.0267H117.194V21.8015H116.024V29.5477H117.194V26.1393H121.954V29.5477H123.122V21.8015H121.954Z" fill="#340D23"/>
<path d="M132.043 28.4491V21.8015H130.874V28.4491H126.381V21.8015H125.212V29.5477H125.592H130.874H132.282V31.6179H133.451V28.4491H132.043Z" fill="#340D23"/>
<path d="M140.417 21.8015L135.951 28.111L136.022 25.5197V21.8015H134.853V29.5477H136.289L140.754 23.224L140.684 25.8295V29.5477H141.852V21.8015H140.417Z" fill="#340D23"/>
<path d="M147.593 21.647C145.396 21.647 143.607 23.3512 143.607 25.6749C143.607 27.9847 145.367 29.7029 147.593 29.7029C149.832 29.7029 151.593 27.9989 151.593 25.6749C151.593 23.3512 149.804 21.647 147.593 21.647ZM147.593 22.7597C149.156 22.7597 150.41 23.9709 150.41 25.6749C150.41 27.3791 149.17 28.5903 147.593 28.5903C146.03 28.5903 144.79 27.3791 144.79 25.6749C144.79 23.9568 146.044 22.7597 147.593 22.7597Z" fill="#340D23"/>
<path d="M159.281 21.8015V25.0267H154.521V21.8015H153.352V29.5477H154.521V26.1393H159.281V29.5477H160.45V21.8015H159.281Z" fill="#340D23"/>
<path d="M168.469 21.8015V25.0267H163.708V21.8015H162.539V29.5477H163.708V26.1393H168.469V29.5477H169.638V21.8015H168.469Z" fill="#340D23"/>
<path d="M175.389 24.3647H172.896V21.8015H171.727V29.5477H175.333C177.078 29.5477 178.121 28.604 178.121 26.914C178.121 25.2098 177.135 24.3647 175.389 24.3647ZM179.346 21.8015V29.5477H180.516V21.8015H179.346ZM175.318 28.435H172.896V25.407H175.333C176.6 25.407 176.938 26.0408 176.938 26.914C176.938 27.759 176.585 28.435 175.318 28.435Z" fill="#340D23"/>
<path d="M189 29.5477L186.183 25.576L188.859 21.8015H187.437L185.48 24.6887L183.493 21.8015H182.085L184.746 25.5619L181.93 29.5477H183.338L185.451 26.4633L187.592 29.5477H189Z" fill="#340D23"/>
<path d="M77.6135 36.6283H70.0786V37.7409H73.2476V46.4869H74.4305V37.7409H77.6135V36.6283Z" fill="#340D23"/>
<path d="M81.3459 38.5863C79.1488 38.5863 77.3602 40.2904 77.3602 42.6143C77.3602 44.924 79.1207 46.6423 81.3459 46.6423C83.5853 46.6423 85.3457 44.9381 85.3457 42.6143C85.3457 40.2904 83.557 38.5863 81.3459 38.5863ZM81.3459 39.6989C82.9092 39.6989 84.1626 40.9101 84.1626 42.6143C84.1626 44.3184 82.9233 45.5295 81.3459 45.5295C79.7826 45.5295 78.5432 44.3184 78.5432 42.6143C78.5432 40.896 79.7967 39.6989 81.3459 39.6989Z" fill="#340D23"/>
<path d="M91.3302 38.5863C89.9923 38.5863 88.9361 39.2764 88.3445 40.3326V38.7411H87.1755V50.0083H88.3445V44.924C88.9361 45.9662 89.9782 46.6423 91.3162 46.6423C93.4288 46.6423 94.9498 44.9522 94.9498 42.6143C94.9498 40.2623 93.4288 38.5863 91.3302 38.5863ZM91.1049 45.5295C89.5276 45.5295 88.3305 44.3184 88.3305 42.6143C88.3305 40.9101 89.5276 39.6989 91.1049 39.6989C92.6683 39.6989 93.7667 40.9242 93.7667 42.6143C93.7667 44.3184 92.6683 45.5295 91.1049 45.5295Z" fill="#340D23"/>
<path d="M101.761 38.7408H96.719V46.487H97.888V39.8394H101.761V38.7408Z" fill="#340D23"/>
<path d="M106.598 38.5863C104.401 38.5863 102.612 40.2904 102.612 42.6143C102.612 44.924 104.373 46.6423 106.598 46.6423C108.837 46.6423 110.598 44.9381 110.598 42.6143C110.598 40.2904 108.809 38.5863 106.598 38.5863ZM106.598 39.6989C108.161 39.6989 109.415 40.9101 109.415 42.6143C109.415 44.3184 108.175 45.5295 106.598 45.5295C105.035 45.5295 103.795 44.3184 103.795 42.6143C103.795 40.896 105.049 39.6989 106.598 39.6989Z" fill="#340D23"/>
<path d="M117.399 42.3604C118.117 41.9943 118.526 41.459 118.526 40.7126C118.526 39.3888 117.624 38.7408 115.822 38.7408H112.357V46.487H116.173C118.004 46.487 118.892 45.6278 118.892 44.2899C118.892 43.3744 118.427 42.6421 117.399 42.3604ZM117.343 40.9098C117.343 41.5436 116.934 42.0506 115.709 42.0506H113.526V39.6845H115.737C117.018 39.6845 117.343 40.1775 117.343 40.9098ZM116.103 45.5434H113.526V42.9238H116.076C117.314 42.9238 117.723 43.4871 117.723 44.1913C117.723 44.9378 117.385 45.5434 116.103 45.5434Z" fill="#340D23"/>
</g>
<defs>
<clipPath id="clip0_25_319">
<rect width="189" height="50.0964" fill="white" transform="translate(0 0.951782)"/>
</clipPath>
</defs>
</svg>
