<svg width="132" height="35" viewBox="0 0 132 35" fill="none" xmlns="http://www.w3.org/2000/svg">
<g clip-path="url(#clip0_75_111)">
<path d="M0 10H22.3214C23.8008 10 25 11.1992 25 12.6786V35H0V10Z" fill="#6994D9"/>
<path d="M34 25H11.6786C10.1992 25 9 23.8008 9 22.3214V0H34V25Z" fill="#6994D9"/>
<path d="M25 25H11.8235C10.2641 25 9 23.8149 9 22.3529V10H22.1765C23.7359 10 25 11.1851 25 12.6471V25Z" fill="white" fill-opacity="0.5"/>
<path d="M54.955 6.34223V0.233887H54.1386V6.34223H50.4008V0.233887H49.5844V6.34223V7.11931H55.319V8.56528H56.1354V6.34223H54.955Z" fill="white" fill-opacity="0.5"/>
<path d="M59.6309 1.60144C58.0177 1.60144 56.8669 2.79164 56.8669 4.4343C56.8669 6.0868 58.0374 7.22781 59.6408 7.22781C60.7719 7.22781 61.7556 6.66714 62.208 5.51629H61.3621C61.0375 6.14582 60.4178 6.46058 59.6703 6.46058C58.5784 6.46058 57.7817 5.78187 57.703 4.66053H62.3359C62.4047 2.88016 61.313 1.60144 59.6309 1.60144ZM59.6309 2.36867C60.6047 2.36867 61.2736 2.98836 61.4506 3.8933H57.7424C57.9292 3.00804 58.6374 2.36867 59.6309 2.36867Z" fill="white" fill-opacity="0.5"/>
<path d="M67.6699 1.70923V3.96174H64.3452V1.70923H63.5288V7.1192H64.3452V4.73881H67.6699V7.1192H68.4863V1.70923H67.6699Z" fill="white" fill-opacity="0.5"/>
<path d="M74.0275 1.70923H72.1586H69.4733V2.47646H71.3422V7.1192H72.1586V2.47646H74.0275V1.70923Z" fill="white" fill-opacity="0.5"/>
<path d="M77.9586 1.60144C77.0242 1.60144 76.2864 2.08342 75.8733 2.82114V1.70964H75.0569V9.57873H75.8733V6.02778C76.2864 6.75567 77.0143 7.22781 77.9487 7.22781C79.4242 7.22781 80.4866 6.04745 80.4866 4.41462C80.4866 2.77196 79.4242 1.60144 77.9586 1.60144ZM77.8012 6.45074C76.6996 6.45074 75.8634 5.60482 75.8634 4.41462C75.8634 3.22444 76.6996 2.37851 77.8012 2.37851C78.8931 2.37851 79.6604 3.23427 79.6604 4.41462C79.6604 5.60482 78.8931 6.45074 77.8012 6.45074Z" fill="white" fill-opacity="0.5"/>
<path d="M54.9306 19.1948V13.0864H50.819L50.0419 17.8177C49.9042 18.6144 49.7666 19.0178 49.5206 19.1948H48.537V21.4178H49.3534V19.9719H55.088V21.4178H55.9142V19.1948H54.9306ZM50.8485 17.8669L51.5075 13.8636H54.1142V19.1948H50.4453C50.6223 18.9293 50.7404 18.5062 50.8485 17.8669Z" fill="white" fill-opacity="0.5"/>
<path d="M60.8652 14.5616L57.7471 18.9683L57.7963 17.1585V14.5616H56.9799V19.9717H57.9832L61.1013 15.5551L61.0521 17.3748V19.9717H61.8685V14.5616H60.8652Z" fill="white" fill-opacity="0.5"/>
<path d="M65.8873 20.0802C67.1267 20.0802 68.2185 19.3425 68.5135 18.0835H67.6676C67.4119 18.8409 66.7234 19.3228 65.8873 19.3228C64.7561 19.3228 63.92 18.4671 63.92 17.267C63.92 16.0769 64.7462 15.2113 65.8873 15.2113C66.7234 15.2113 67.4119 15.6834 67.6676 16.4506H68.5135C68.2283 15.2113 67.1463 14.4539 65.8873 14.4539C64.3036 14.4539 63.0938 15.6539 63.0938 17.267C63.0938 18.8802 64.3036 20.0802 65.8873 20.0802Z" fill="white" fill-opacity="0.5"/>
<path d="M73.5591 14.5616H71.6902H69.0049V15.3289H70.8738V19.9717H71.6902V15.3289H73.5591V14.5616Z" fill="white" fill-opacity="0.5"/>
<path d="M78.7632 14.5621V15.6736C78.3501 14.9359 77.6124 14.4539 76.6779 14.4539C75.2123 14.4539 74.15 15.6244 74.15 17.267C74.15 18.8999 75.2024 20.0802 76.6779 20.0802C77.6124 20.0802 78.3402 19.6081 78.7632 18.8802V19.9721H79.5793V14.5621H78.7632ZM76.8353 19.3032C75.7435 19.3032 74.9762 18.4573 74.9762 17.267C74.9762 16.0868 75.7336 15.231 76.8353 15.231C77.937 15.231 78.773 16.0769 78.773 17.267C78.773 18.4573 77.937 19.3032 76.8353 19.3032Z" fill="white" fill-opacity="0.5"/>
<path d="M85.1743 14.5616V16.8142H81.8496V14.5616H81.033V19.9717H81.8496V17.5912H85.1743V19.9717H85.9901V14.5616H85.1743Z" fill="white" fill-opacity="0.5"/>
<path d="M92.2203 19.2044V14.5616H91.4037V19.2044H88.2659V14.5616H87.4492V19.9717H87.7148H91.4037H92.3873V21.4175H93.2039V19.2044H92.2203Z" fill="white" fill-opacity="0.5"/>
<path d="M98.0688 14.5616L94.9501 18.9683L94.9994 17.1585V14.5616H94.1827V19.9717H95.1863L98.3042 15.5551L98.2557 17.3748V19.9717H99.0715V14.5616H98.0688Z" fill="white" fill-opacity="0.5"/>
<path d="M103.081 14.4539C101.546 14.4539 100.297 15.6441 100.297 17.267C100.297 18.8802 101.526 20.0802 103.081 20.0802C104.644 20.0802 105.875 18.8901 105.875 17.267C105.875 15.6441 104.625 14.4539 103.081 14.4539ZM103.081 15.231C104.173 15.231 105.048 16.0769 105.048 17.267C105.048 18.4573 104.182 19.3032 103.081 19.3032C101.989 19.3032 101.123 18.4573 101.123 17.267C101.123 16.067 101.999 15.231 103.081 15.231Z" fill="white" fill-opacity="0.5"/>
<path d="M111.244 14.5616V16.8142H107.92V14.5616H107.103V19.9717H107.92V17.5912H111.244V19.9717H112.06V14.5616H111.244Z" fill="white" fill-opacity="0.5"/>
<path d="M117.66 14.5616V16.8142H114.336V14.5616H113.519V19.9717H114.336V17.5912H117.66V19.9717H118.477V14.5616H117.66Z" fill="white" fill-opacity="0.5"/>
<path d="M122.494 16.3518H120.753V14.5616H119.936V19.9717H122.455C123.674 19.9717 124.402 19.3126 124.402 18.1322C124.402 16.942 123.714 16.3518 122.494 16.3518ZM125.258 14.5616V19.9717H126.074V14.5616H125.258ZM122.444 19.1945H120.753V17.0797H122.455C123.34 17.0797 123.576 17.5224 123.576 18.1322C123.576 18.7224 123.329 19.1945 122.444 19.1945Z" fill="white" fill-opacity="0.5"/>
<path d="M132 19.9717L130.033 17.1978L131.901 14.5616H130.908L129.541 16.5781L128.154 14.5616H127.17L129.029 17.188L127.062 19.9717H128.046L129.522 17.8175L131.016 19.9717H132Z" fill="white" fill-opacity="0.5"/>
<path d="M54.2063 24.9171H48.9438V25.6942H51.1571V31.8025H51.9833V25.6942H54.2063V24.9171Z" fill="white" fill-opacity="0.5"/>
<path d="M56.813 26.2845C55.2786 26.2845 54.0294 27.4747 54.0294 29.0977C54.0294 30.7108 55.2589 31.9109 56.813 31.9109C58.3771 31.9109 59.6066 30.7207 59.6066 29.0977C59.6066 27.4747 58.3574 26.2845 56.813 26.2845ZM56.813 27.0616C57.9049 27.0616 58.7803 27.9075 58.7803 29.0977C58.7803 30.2879 57.9148 31.1338 56.813 31.1338C55.7212 31.1338 54.8556 30.2879 54.8556 29.0977C54.8556 27.8976 55.7311 27.0616 56.813 27.0616Z" fill="white" fill-opacity="0.5"/>
<path d="M63.7862 26.2845C62.8518 26.2845 62.1141 26.7665 61.7009 27.5042V26.3927H60.8845V34.2618H61.7009V30.7108C62.1141 31.4387 62.8419 31.9109 63.7764 31.9109C65.2519 31.9109 66.3142 30.7306 66.3142 29.0977C66.3142 27.4551 65.2519 26.2845 63.7862 26.2845ZM63.6288 31.1338C62.5272 31.1338 61.6912 30.2879 61.6912 29.0977C61.6912 27.9075 62.5272 27.0616 63.6288 27.0616C64.7207 27.0616 65.4879 27.9174 65.4879 29.0977C65.4879 30.2879 64.7207 31.1338 63.6288 31.1338Z" fill="white" fill-opacity="0.5"/>
<path d="M71.0712 26.3923H67.5498V31.8023H68.3662V27.1596H71.0712V26.3923Z" fill="white" fill-opacity="0.5"/>
<path d="M74.4495 26.2845C72.915 26.2845 71.6658 27.4747 71.6658 29.0977C71.6658 30.7108 72.8953 31.9109 74.4495 31.9109C76.0134 31.9109 77.2429 30.7207 77.2429 29.0977C77.2429 27.4747 75.9938 26.2845 74.4495 26.2845ZM74.4495 27.0616C75.5412 27.0616 76.4167 27.9075 76.4167 29.0977C76.4167 30.2879 75.5511 31.1338 74.4495 31.1338C73.3576 31.1338 72.492 30.2879 72.492 29.0977C72.492 27.8976 73.3675 27.0616 74.4495 27.0616Z" fill="white" fill-opacity="0.5"/>
<path d="M81.9927 28.9203C82.4945 28.6646 82.7799 28.2907 82.7799 27.7694C82.7799 26.8449 82.1501 26.3923 80.8914 26.3923H78.4716V31.8023H81.1371C82.4157 31.8023 83.036 31.2023 83.036 30.2679C83.036 29.6285 82.7107 29.117 81.9927 28.9203ZM81.9537 27.9072C81.9537 28.3498 81.6683 28.7039 80.8126 28.7039H79.288V27.0514H80.8325C81.7271 27.0514 81.9537 27.3957 81.9537 27.9072ZM81.0878 31.1433H79.288V29.3137H81.0687C81.9339 29.3137 82.2193 29.7072 82.2193 30.199C82.2193 30.7203 81.9832 31.1433 81.0878 31.1433Z" fill="white" fill-opacity="0.5"/>
</g>
<defs>
<clipPath id="clip0_75_111">
<rect width="132" height="34.988" fill="white"/>
</clipPath>
</defs>
</svg>
